<mxfile host="Electron" agent="Mozilla/5.0 (Macintosh; Intel Mac OS X 10_15_7) AppleWebKit/537.36 (KHTML, like Gecko) draw.io/27.0.9 Chrome/134.0.6998.205 Electron/35.4.0 Safari/537.36" version="27.0.9">
  <diagram name="Page-1" id="iu7YZ35_FKlgIa9YEYT2">
    <mxGraphModel dx="1004" dy="654" grid="1" gridSize="10" guides="1" tooltips="1" connect="1" arrows="1" fold="1" page="1" pageScale="1" pageWidth="827" pageHeight="1169" math="0" shadow="0">
      <root>
        <mxCell id="0" />
        <mxCell id="1" parent="0" />
        <mxCell id="dGgaXydasasR5iMZL6VS-10" style="edgeStyle=orthogonalEdgeStyle;rounded=0;orthogonalLoop=1;jettySize=auto;html=1;entryX=0;entryY=0.5;entryDx=0;entryDy=0;" edge="1" parent="1" source="dGgaXydasasR5iMZL6VS-1" target="dGgaXydasasR5iMZL6VS-7">
          <mxGeometry relative="1" as="geometry" />
        </mxCell>
        <mxCell id="dGgaXydasasR5iMZL6VS-11" style="edgeStyle=orthogonalEdgeStyle;rounded=0;orthogonalLoop=1;jettySize=auto;html=1;entryX=0;entryY=0.5;entryDx=0;entryDy=0;" edge="1" parent="1" source="dGgaXydasasR5iMZL6VS-1" target="dGgaXydasasR5iMZL6VS-5">
          <mxGeometry relative="1" as="geometry" />
        </mxCell>
        <mxCell id="dGgaXydasasR5iMZL6VS-12" style="edgeStyle=orthogonalEdgeStyle;rounded=0;orthogonalLoop=1;jettySize=auto;html=1;entryX=1;entryY=0.5;entryDx=0;entryDy=0;" edge="1" parent="1" source="dGgaXydasasR5iMZL6VS-1" target="dGgaXydasasR5iMZL6VS-8">
          <mxGeometry relative="1" as="geometry" />
        </mxCell>
        <mxCell id="dGgaXydasasR5iMZL6VS-13" style="edgeStyle=orthogonalEdgeStyle;rounded=0;orthogonalLoop=1;jettySize=auto;html=1;entryX=1;entryY=0.5;entryDx=0;entryDy=0;" edge="1" parent="1" source="dGgaXydasasR5iMZL6VS-1" target="dGgaXydasasR5iMZL6VS-9">
          <mxGeometry relative="1" as="geometry" />
        </mxCell>
        <mxCell id="dGgaXydasasR5iMZL6VS-1" value="Facts&lt;br&gt;Table" style="rounded=1;whiteSpace=wrap;html=1;" vertex="1" parent="1">
          <mxGeometry x="350" y="260" width="60" height="60" as="geometry" />
        </mxCell>
        <mxCell id="dGgaXydasasR5iMZL6VS-5" value="Dimension 2&lt;br&gt;Table" style="rounded=1;whiteSpace=wrap;html=1;" vertex="1" parent="1">
          <mxGeometry x="450" y="210" width="80" height="60" as="geometry" />
        </mxCell>
        <mxCell id="dGgaXydasasR5iMZL6VS-7" value="Dimension 4&lt;br&gt;Table" style="rounded=1;whiteSpace=wrap;html=1;" vertex="1" parent="1">
          <mxGeometry x="450" y="300" width="80" height="60" as="geometry" />
        </mxCell>
        <mxCell id="dGgaXydasasR5iMZL6VS-8" value="Dimension 1&lt;br&gt;Table" style="rounded=1;whiteSpace=wrap;html=1;" vertex="1" parent="1">
          <mxGeometry x="230" y="210" width="80" height="60" as="geometry" />
        </mxCell>
        <mxCell id="dGgaXydasasR5iMZL6VS-9" value="Dimension 3&lt;br&gt;Table" style="rounded=1;whiteSpace=wrap;html=1;" vertex="1" parent="1">
          <mxGeometry x="230" y="300" width="80" height="60" as="geometry" />
        </mxCell>
      </root>
    </mxGraphModel>
  </diagram>
</mxfile>
